<svg width="47" height="68" viewBox="0 0 47 68" fill="none" xmlns="http://www.w3.org/2000/svg">
<g id="Group">
<g id="Group_2">
<g id="Group_3">
<g id="Group_4">
<g id="Group_5">
<path id="Vector" d="M0.443558 60.4099H1.47076V67.8999H0.443558V60.4099Z" fill="white" stroke="#002060" stroke-width="0.044544" stroke-miterlimit="10"/>
<path id="Vector_2" d="M2.49856 60.4099H8.49055V61.3515H6.00815V67.8999H4.98095V61.3515H2.49856V60.4099Z" fill="white" stroke="#002060" stroke-width="0.044544" stroke-miterlimit="10"/>
<path id="Vector_3" d="M11.9998 60.4099H15.1242C15.381 60.4099 15.5522 60.4099 15.7234 60.4099C15.8946 60.4099 16.0658 60.4099 16.1942 60.4527C16.3226 60.4527 16.451 60.4955 16.5366 60.5383C16.6222 60.5811 16.7506 60.6239 16.8362 60.6667C17.4782 61.0091 17.8206 61.6083 17.8206 62.4643C17.8206 62.6783 17.8206 62.8923 17.7778 63.0635C17.735 63.2347 17.6922 63.4059 17.6066 63.5343C17.521 63.6627 17.4354 63.7911 17.2642 63.9195C17.093 64.0479 16.9646 64.1335 16.7934 64.2191C16.9646 64.3047 17.1358 64.3475 17.2642 64.4331C17.3926 64.5187 17.4782 64.6043 17.5638 64.7327C17.6494 64.8611 17.6922 65.0323 17.6922 65.2035C17.735 65.3747 17.735 65.6315 17.735 65.8883V66.7443C17.735 67.1295 17.8206 67.5147 18.0346 67.8143L18.0774 67.8999H16.7934C16.7506 67.6859 16.7078 67.5147 16.665 67.3435C16.6222 67.1723 16.6222 67.0011 16.6222 66.8299V65.8883C16.6222 65.2463 16.3654 64.8611 15.8946 64.7755C15.7234 64.7327 15.4238 64.7327 15.0386 64.7327H13.027V67.8999H11.9998V60.4099ZM13.027 61.3087V63.7055H14.9958C15.167 63.7055 15.3382 63.7055 15.4666 63.7055C15.595 63.7055 15.6806 63.7055 15.7662 63.6627C15.8518 63.6627 15.9374 63.6199 15.9802 63.6199C16.023 63.6199 16.1086 63.5771 16.1942 63.5343C16.5366 63.3631 16.7078 63.0207 16.7078 62.5071C16.7078 62.2503 16.665 62.0363 16.5366 61.8651C16.451 61.6939 16.2798 61.5227 16.0658 61.4371C15.8518 61.3515 15.5094 61.3087 15.0386 61.3087H13.027Z" fill="white" stroke="#002060" stroke-width="0.044544" stroke-miterlimit="10"/>
<path id="Vector_4" d="M21.5014 60.4099H22.5714L25.2678 67.8999H24.155L23.3846 65.6743H20.517L19.7038 67.8999H18.591L21.5014 60.4099ZM22.015 61.5227L20.8594 64.7755H23.085L22.015 61.5227Z" fill="white" stroke="#002060" stroke-width="0.044544" stroke-miterlimit="10"/>
<path id="Vector_5" d="M26.2523 60.4099H27.4079L30.8319 66.2735V60.4099H31.8591V67.8999H30.7035L27.2795 61.9507V67.8571H26.2523V60.4099Z" fill="white" stroke="#002060" stroke-width="0.044544" stroke-miterlimit="10"/>
<path id="Vector_6" d="M33.6563 60.3674H34.6835V64.0054L38.2359 60.3674H39.6055L36.5667 63.4062L39.5627 67.8574H38.3215L35.8391 64.1338L34.6407 65.2894V67.9002H33.6135V60.3674H33.6563Z" fill="white" stroke="#002060" stroke-width="0.044544" stroke-miterlimit="10"/>
<path id="Vector_7" d="M40.0766 65.376H41.1466V65.59C41.1466 65.7184 41.1466 65.8468 41.1466 65.9324C41.1466 66.018 41.1894 66.1036 41.1894 66.1892C41.2322 66.2748 41.275 66.3176 41.3178 66.4032C41.3606 66.446 41.4462 66.5316 41.5318 66.5744C41.8742 66.874 42.4306 67.0452 43.1154 67.0452C43.3722 67.0452 43.629 67.0024 43.843 66.9596C44.057 66.9168 44.271 66.8312 44.3994 66.7028C44.5706 66.6172 44.699 66.4888 44.7846 66.3176C44.8702 66.1892 44.913 66.018 44.913 65.8468C44.913 65.7612 44.913 65.6328 44.8702 65.5472C44.8274 65.4616 44.7846 65.3332 44.7418 65.2476C44.6562 65.162 44.5706 65.0764 44.485 64.9908C44.3566 64.9052 44.2282 64.8196 44.057 64.7768L41.7458 64.2204C41.2322 64.0492 40.8898 63.7924 40.633 63.4928C40.419 63.1932 40.2906 62.808 40.2906 62.38C40.2906 62.0804 40.3334 61.7808 40.4618 61.524C40.5902 61.2672 40.7614 61.0532 41.0182 60.8392C41.275 60.6252 41.5318 60.4968 41.8742 60.4112C42.2166 60.3256 42.559 60.24 42.987 60.24C43.2866 60.24 43.5862 60.2828 43.8858 60.3256C44.1854 60.3684 44.3994 60.4968 44.6562 60.5824C44.913 60.668 45.0842 60.8392 45.2126 61.0104C45.341 61.1816 45.5122 61.3528 45.555 61.5668C45.5978 61.6524 45.6406 61.7808 45.6406 61.9092C45.6406 62.0376 45.6834 62.2088 45.6834 62.38V62.6368H44.6134C44.6134 62.5084 44.6134 62.4228 44.6134 62.3372C44.6134 62.2516 44.6134 62.166 44.5706 62.1232C44.5278 62.0804 44.5278 61.9948 44.5278 61.952C44.5278 61.9092 44.485 61.8664 44.4422 61.7808C44.3566 61.6952 44.3138 61.6096 44.1854 61.524C44.057 61.4384 43.9714 61.3956 43.843 61.3528C43.7146 61.31 43.5862 61.2672 43.415 61.2244C43.2438 61.1816 43.1154 61.1816 42.9442 61.1816C42.7302 61.1816 42.5162 61.2244 42.345 61.2672C42.1738 61.31 42.0026 61.3956 41.8314 61.4812C41.703 61.5668 41.5746 61.6952 41.489 61.8236C41.4034 61.952 41.3606 62.1232 41.3606 62.2944C41.3606 62.4228 41.3606 62.5084 41.4034 62.594C41.4034 62.6796 41.4462 62.7652 41.5318 62.8508C41.6174 62.9364 41.6602 62.9792 41.7886 63.022C41.8742 63.0648 42.0454 63.1504 42.1738 63.1932L44.5706 63.7924C45.4694 64.1348 45.9402 64.734 45.9402 65.6328C45.9402 65.9324 45.8974 66.232 45.769 66.5316C45.6406 66.8312 45.4694 67.0452 45.2554 67.2592C44.9986 67.4732 44.699 67.6444 44.3566 67.7728C43.9714 67.9012 43.5434 67.944 43.0298 67.944C42.0454 67.944 41.275 67.73 40.7614 67.3448C40.2478 66.9596 39.991 66.3604 39.991 65.5472V65.376H40.0766Z" fill="white" stroke="#002060" stroke-width="0.044544" stroke-miterlimit="10"/>
</g>
</g>
</g>
</g>
<g id="Group_6">
<g id="Group_7">
<path id="Vector_8" d="M6.13623 48.1704V10.2925H2.15583V48.1276C1.12863 48.7696 0.401031 49.968 0.401031 51.2948C0.401031 53.3492 2.07023 55.0184 4.12463 55.0184C6.17903 55.0184 7.84822 53.3492 7.84822 51.2948C7.89102 49.968 7.16342 48.8124 6.13623 48.1704ZM4.16743 53.2208C3.09743 53.2208 2.24143 52.3648 2.24143 51.2948C2.24143 50.2248 3.09743 49.3688 4.16743 49.3688C5.23743 49.3688 6.09343 50.2248 6.09343 51.2948C6.09343 52.3648 5.19463 53.2208 4.16743 53.2208Z" fill="white"/>
<path id="Vector_9" d="M45.9834 9.90771H20.6458V48.1281C19.6186 48.7701 18.891 49.9685 18.891 51.2953C18.891 53.3497 20.5602 55.0189 22.6146 55.0189C24.669 55.0189 26.3382 53.3497 26.3382 51.2953C26.3382 49.9685 25.6534 48.8129 24.5834 48.1281V13.8881H42.003V29.6813H32.587C31.4742 29.6813 30.447 30.3661 30.019 31.3933C29.6338 32.2921 29.7622 33.3621 30.3614 34.1325L38.5362 49.4549C38.2366 50.0113 38.0654 50.6105 38.0654 51.2953C38.0654 53.3497 39.7346 55.0189 41.789 55.0189C43.8434 55.0189 45.5126 53.3497 45.5126 51.2953C45.5126 49.3265 43.9718 47.7001 42.0458 47.5717L34.5558 33.6617H45.9406V9.90771H45.9834ZM22.6146 53.2213C21.5446 53.2213 20.6886 52.3653 20.6886 51.2953C20.6886 50.2253 21.5446 49.3693 22.6146 49.3693C23.6846 49.3693 24.5406 50.2253 24.5406 51.2953C24.5406 52.3653 23.6846 53.2213 22.6146 53.2213ZM41.7462 49.3693C42.8162 49.3693 43.6722 50.2253 43.6722 51.2953C43.6722 52.3653 42.8162 53.2213 41.7462 53.2213C40.6762 53.2213 39.8202 52.3653 39.8202 51.2953C39.8202 50.2253 40.6762 49.3693 41.7462 49.3693Z" fill="white"/>
<path id="Vector_10" d="M46.2824 4.60051V0.620117H1.85603V4.60051H11.4432V48.1709C10.3732 48.8129 9.68842 50.0113 9.68842 51.3381C9.68842 53.3925 11.3576 55.0617 13.412 55.0617C15.4664 55.0617 17.1356 53.3925 17.1356 51.3381C17.1356 50.0113 16.4508 48.8557 15.3808 48.1709V4.60051H46.2824ZM13.412 53.2213C12.342 53.2213 11.486 52.3653 11.486 51.2953C11.486 50.2253 12.342 49.3693 13.412 49.3693C14.482 49.3693 15.338 50.2253 15.338 51.2953C15.338 52.3653 14.482 53.2213 13.412 53.2213Z" fill="white"/>
</g>
</g>
</g>
</svg>
