<svg width="25" height="25" viewBox="0 0 25 25" fill="none" xmlns="http://www.w3.org/2000/svg">
<g id="Frame">
<g id="Group">
<path id="Vector" d="M20.5352 11.8566C20.2625 11.77 19.9704 11.7654 19.6951 11.8436C19.4198 11.9217 19.1737 12.0791 18.9872 12.2961L16.246 16.0386C16.2066 16.3995 16.0378 16.7338 15.7708 16.9797C15.5039 17.2256 15.1568 17.3663 14.794 17.3759H9.56646C9.46849 17.3759 9.37454 17.337 9.30527 17.2677C9.236 17.1984 9.19708 17.1045 9.19708 17.0065C9.19708 16.9086 9.236 16.8146 9.30527 16.7453C9.37454 16.6761 9.46849 16.6371 9.56646 16.6371H14.794C14.998 16.6251 15.1889 16.533 15.3253 16.3808C15.4616 16.2285 15.5323 16.0286 15.5218 15.8245C15.5404 15.4187 15.3978 15.022 15.1251 14.721C14.8524 14.4199 14.4717 14.2388 14.0661 14.2173H8.01058C7.33625 14.227 6.67578 14.4102 6.0928 14.7492C5.50982 15.0882 5.02398 15.5717 4.68208 16.153L3.16333 18.6138L5.19546 23.0879L7.80396 21.5879C8.23379 21.3018 8.71588 21.1034 9.22258 21.004L14.5828 20.3429C15.3069 20.1922 15.9584 19.8 16.4305 19.2306L21.0786 13.0904C21.1673 12.9825 21.2243 12.852 21.2433 12.7136C21.2624 12.5752 21.2426 12.4343 21.1863 12.3064C21.13 12.1786 21.0393 12.0688 20.9244 11.9894C20.8094 11.91 20.6747 11.8641 20.5352 11.8566ZM10.8925 7.02364C12.5792 8.19889 15.1075 6.87814 15.0527 4.77739C15.0522 4.06483 14.7692 3.38154 14.2656 2.87737C13.7621 2.37319 13.0791 2.08928 12.3666 2.08789C9.70596 2.08564 8.68671 5.59864 10.8925 7.02364ZM20.6128 5.18764C20.518 2.22364 16.2205 2.22439 16.1278 5.18764C16.2347 8.15389 20.5026 8.15577 20.6128 5.18764Z" fill="white"/>
<path id="Vector_2" d="M21.0047 7.40804L20.5206 7.24567C20.1165 7.66963 19.5962 7.96483 19.025 8.09426C18.4538 8.22368 17.8572 8.18155 17.3098 7.97317C17.71 8.50154 17.9255 9.14673 17.9233 9.80954V10.8145C17.9238 10.838 17.9226 10.8614 17.9196 10.8847H21.5143C21.7318 10.8845 21.9402 10.798 22.094 10.6442C22.2478 10.4905 22.3342 10.282 22.3344 10.0645V9.25154C22.3339 8.84368 22.2052 8.44629 21.9666 8.1155C21.728 7.78471 21.3915 7.53724 21.0047 7.40804ZM8.61281 5.18767C8.52056 2.22442 4.22268 2.22404 4.12781 5.18767C4.22681 8.15092 8.51568 8.15204 8.61281 5.18767Z" fill="white"/>
<path id="Vector_3" d="M6.80981 10.8846C6.80682 10.8614 6.80557 10.8379 6.80606 10.8145C6.77531 9.86873 6.77606 8.73923 7.40831 7.98436C6.86275 8.18562 6.27023 8.22291 5.70374 8.09165C5.13724 7.96039 4.62151 7.6663 4.22006 7.24561L3.73631 7.40798C3.34938 7.53711 3.0128 7.78455 2.77413 8.11535C2.53545 8.44614 2.40675 8.84357 2.40619 9.25148V10.0645C2.40639 10.2819 2.49286 10.4904 2.64662 10.6442C2.80038 10.7979 3.00886 10.8844 3.22631 10.8846H6.80981ZM7.54519 9.80948V10.8145C7.5446 10.8379 7.54585 10.8614 7.54894 10.8846C7.56531 11.118 7.66986 11.3365 7.84138 11.4957C8.0129 11.6549 8.23855 11.7429 8.47256 11.7419H16.2606C16.494 11.7422 16.719 11.6539 16.8898 11.4948C17.0606 11.3356 17.1647 11.1175 17.1808 10.8846C17.1839 10.8614 17.1852 10.8379 17.1846 10.8145V9.80948C17.1827 9.29003 17.0082 8.78593 16.6885 8.37656C16.3687 7.96718 15.9219 7.67578 15.4183 7.54823L14.6758 7.30073C14.0438 7.87583 13.2201 8.19484 12.3656 8.19553C11.5111 8.19622 10.6869 7.87855 10.0539 7.30448L9.31894 7.54823C8.81406 7.67448 8.36561 7.9653 8.04441 8.37478C7.72321 8.78426 7.54756 9.28906 7.54519 9.80948Z" fill="white"/>
</g>
</g>
</svg>
