<svg width="25" height="25" viewBox="0 0 25 25" fill="none" xmlns="http://www.w3.org/2000/svg">
<g id="Frame" clip-path="url(#clip0_11_293)">
<g id="Group">
<path id="Vector" d="M23.6512 15.4899L21.4452 13.7649C21.4732 13.4989 21.4972 13.1879 21.4972 12.8589C21.4972 12.5299 21.4741 12.2189 21.4452 11.9529L23.6532 10.2269C24.0632 9.90289 24.1752 9.32788 23.9142 8.84891L21.6202 4.87986C21.3751 4.43188 20.8381 4.20186 20.2932 4.40286L17.6902 5.44785C17.1912 5.08785 16.6681 4.78386 16.1272 4.54086L15.7312 1.77988C15.6661 1.25586 15.2101 0.859863 14.6712 0.859863H10.0712C9.53218 0.859863 9.07721 1.25586 9.01318 1.77186L8.61619 4.54288C8.09218 4.77889 7.57721 5.07889 7.05619 5.44986L4.44619 4.40188C3.95715 4.21288 3.37215 4.42485 3.12915 4.87086L0.832177 8.84488C0.561193 9.30289 0.673177 9.89788 1.09219 10.2299L3.29818 11.9549C3.26316 12.2919 3.24619 12.5849 3.24619 12.8599C3.24619 13.1349 3.26321 13.4279 3.29818 13.7659L1.09018 15.4919C0.680161 15.8169 0.569161 16.3919 0.830161 16.8699L3.12418 20.8389C3.36919 21.2859 3.90118 21.5179 4.45116 21.3159L7.05418 20.2709C7.55218 20.6299 8.07516 20.9339 8.61619 21.1779L9.01219 23.9379C9.07716 24.4639 9.53218 24.8599 10.0722 24.8599H14.6722C15.2112 24.8599 15.6672 24.4639 15.7312 23.9479L16.1281 21.1779C16.6522 20.9409 17.1661 20.6419 17.6881 20.2699L20.2981 21.3178C20.4231 21.3668 20.556 21.3919 20.6902 21.3919C21.0781 21.3919 21.4351 21.1798 21.6151 20.8498L23.9191 16.8598C24.1752 16.3918 24.0631 15.8169 23.6512 15.4899ZM12.3712 16.8598C10.1652 16.8598 8.37118 15.0658 8.37118 12.8599C8.37118 10.6539 10.1652 8.85988 12.3712 8.85988C14.5771 8.85988 16.3711 10.6539 16.3711 12.8599C16.3711 15.0658 14.5771 16.8598 12.3712 16.8598Z" fill="white"/>
</g>
</g>
<defs>
<clipPath id="clip0_11_293">
<rect width="24" height="24" fill="white" transform="translate(0.3703 0.859863)"/>
</clipPath>
</defs>
</svg>
