<svg width="25" height="25" viewBox="0 0 25 25" fill="none" xmlns="http://www.w3.org/2000/svg">
<g id="Frame" clip-path="url(#clip0_11_269)">
<g id="Group">
<path id="Vector" d="M15.3703 7.08789C15.1051 7.08789 14.8507 6.98253 14.6632 6.795C14.4757 6.60746 14.3703 6.35311 14.3703 6.08789V4.58789H10.3703V6.08789C10.3703 6.35311 10.2649 6.60746 10.0774 6.795C9.88987 6.98253 9.63552 7.08789 9.3703 7.08789C9.10508 7.08789 8.85073 6.98253 8.66319 6.795C8.47566 6.60746 8.3703 6.35311 8.3703 6.08789V4.58789C8.3703 3.48489 9.2673 2.58789 10.3703 2.58789H14.3703C15.4733 2.58789 16.3703 3.48489 16.3703 4.58789V6.08789C16.3703 6.35311 16.2649 6.60746 16.0774 6.795C15.8899 6.98253 15.6355 7.08789 15.3703 7.08789ZM13.0803 15.9679C12.5996 16.1331 12.0764 16.126 11.6003 15.9479L0.3703 12.2079V19.8379C0.3703 21.3579 1.6003 22.5879 3.1203 22.5879H21.6203C23.1403 22.5879 24.3703 21.3579 24.3703 19.8379V12.2079L13.0803 15.9679Z" fill="white"/>
<path id="Vector_2" d="M24.3703 8.33789V10.6279L12.6103 14.5479C12.5303 14.5779 12.4503 14.5879 12.3703 14.5879C12.2903 14.5879 12.2103 14.5779 12.1303 14.5479L0.3703 10.6279V8.33789C0.3703 6.81789 1.6003 5.58789 3.1203 5.58789H21.6203C23.1403 5.58789 24.3703 6.81789 24.3703 8.33789Z" fill="white"/>
</g>
</g>
<defs>
<clipPath id="clip0_11_269">
<rect width="24" height="24" fill="white" transform="translate(0.3703 0.587891)"/>
</clipPath>
</defs>
</svg>
