<svg width="25" height="25" viewBox="0 0 25 25" fill="none" xmlns="http://www.w3.org/2000/svg">
<g id="Frame">
<g id="Group">
<path id="Vector" d="M16.4623 12.5878C13.5673 12.5878 11.2123 14.906 11.2123 17.7557C11.2123 20.6055 13.5673 22.9237 16.4623 22.9237C19.3573 22.9237 21.7123 20.6055 21.7123 17.7557C21.7123 14.906 19.3573 12.5878 16.4623 12.5878ZM18.6261 17.1703L16.3761 19.3851C16.3066 19.4539 16.224 19.5085 16.133 19.5458C16.042 19.583 15.9444 19.6022 15.8458 19.6022C15.7473 19.6022 15.6497 19.583 15.5587 19.5458C15.4677 19.5085 15.3851 19.4539 15.3156 19.3851L14.2978 18.3833C14.2282 18.3147 14.1729 18.2334 14.1353 18.1438C14.0976 18.0542 14.0782 17.9582 14.0782 17.8613C14.0782 17.7644 14.0976 17.6684 14.1353 17.5788C14.1729 17.4893 14.2282 17.4079 14.2978 17.3393C14.3675 17.2708 14.4501 17.2164 14.5411 17.1793C14.6321 17.1422 14.7296 17.1231 14.8281 17.1231C14.9265 17.1231 15.0241 17.1422 15.115 17.1793C15.206 17.2164 15.2887 17.2708 15.3583 17.3393L15.8458 17.8192L17.5656 16.1264C17.7062 15.9879 17.8969 15.9101 18.0958 15.9101C18.2947 15.9101 18.4854 15.9879 18.6261 16.1264C18.7667 16.2648 18.8457 16.4525 18.8457 16.6483C18.8457 16.8441 18.7667 17.0318 18.6261 17.1703ZM15.7783 2.25183H6.02832C4.78782 2.25183 3.77832 3.24556 3.77832 4.46667V18.494C3.77832 19.7151 4.78782 20.7089 6.02832 20.7089H10.4241C9.95658 19.7924 9.71262 18.7813 9.71157 17.7557C9.71157 14.0924 12.7401 11.1112 16.4616 11.1112C17.0016 11.1112 17.5243 11.1806 18.0283 11.2995V4.46667C18.0283 3.24556 17.0188 2.25183 15.7783 2.25183ZM7.49532 16.2792H5.99532C5.79641 16.2792 5.60564 16.2014 5.46499 16.0629C5.32434 15.9245 5.24532 15.7367 5.24532 15.5409C5.24532 15.3451 5.32434 15.1573 5.46499 15.0188C5.60564 14.8804 5.79641 14.8026 5.99532 14.8026H7.49532C7.69423 14.8026 7.885 14.8804 8.02565 15.0188C8.1663 15.1573 8.24532 15.3451 8.24532 15.5409C8.24532 15.7367 8.1663 15.9245 8.02565 16.0629C7.885 16.2014 7.69423 16.2792 7.49532 16.2792ZM9.74532 13.326H5.99532C5.79641 13.326 5.60564 13.2483 5.46499 13.1098C5.32434 12.9714 5.24532 12.7836 5.24532 12.5878C5.24532 12.392 5.32434 12.2042 5.46499 12.0657C5.60564 11.9273 5.79641 11.8495 5.99532 11.8495H9.74532C9.94423 11.8495 10.135 11.9273 10.2757 12.0657C10.4163 12.2042 10.4953 12.392 10.4953 12.5878C10.4953 12.7836 10.4163 12.9714 10.2757 13.1098C10.135 13.2483 9.94423 13.326 9.74532 13.326ZM12.7453 10.3729H5.99532C5.79641 10.3729 5.60564 10.2951 5.46499 10.1567C5.32434 10.0182 5.24532 9.83045 5.24532 9.63464C5.24532 9.43884 5.32434 9.25105 5.46499 9.1126C5.60564 8.97415 5.79641 8.89636 5.99532 8.89636H12.7453C12.9442 8.89636 13.135 8.97415 13.2757 9.1126C13.4163 9.25105 13.4953 9.43884 13.4953 9.63464C13.4953 9.83045 13.4163 10.0182 13.2757 10.1567C13.135 10.2951 12.9442 10.3729 12.7453 10.3729ZM12.7453 7.4198H5.99532C5.79641 7.4198 5.60564 7.34202 5.46499 7.20356C5.32434 7.06511 5.24532 6.87732 5.24532 6.68152C5.24532 6.48571 5.32434 6.29793 5.46499 6.15948C5.60564 6.02102 5.79641 5.94324 5.99532 5.94324H12.7453C12.9442 5.94324 13.135 6.02102 13.2757 6.15948C13.4163 6.29793 13.4953 6.48571 13.4953 6.68152C13.4953 6.87732 13.4163 7.06511 13.2757 7.20356C13.135 7.34202 12.9442 7.4198 12.7453 7.4198Z" fill="white"/>
</g>
</g>
</svg>
